<svg viewBox="0 0 512 512" xmlns="http://www.w3.org/2000/svg">
  <defs>
    <linearGradient id="bg" x1="0" y1="0" x2="0" y2="1">
      <stop offset="0%" stop-color="#0C0E14"/>
      <stop offset="100%" stop-color="#151829"/>
    </linearGradient>
    <linearGradient id="glow" x1="0" y1="0" x2="1" y2="1">
      <stop offset="0%" stop-color="#43E8A7"/>
      <stop offset="100%" stop-color="#2BC48D"/>
    </linearGradient>
  </defs>
  <rect width="512" height="512" rx="100" fill="url(#bg)"/>
  <rect x="40" y="40" width="432" height="432" rx="80" fill="none" stroke="rgba(67,232,167,.08)" stroke-width="2"/>
  <g transform="translate(256,236)">
    <path d="M-140,-10 L0,-76 L140,-10 L140,22 L0,86 L-140,22 Z" fill="none" stroke="url(#glow)" stroke-width="7" stroke-linejoin="round"/>
    <path d="M-140,-10 L0,-76 L140,-10" fill="none" stroke="#43E8A7" stroke-width="5" stroke-linejoin="round" opacity=".4"/>
    <path d="M-118,6 L-118,38 L0,86 L118,38 L118,6" fill="none" stroke="url(#glow)" stroke-width="6" stroke-linejoin="round"/>
    <rect x="-86" y="16" width="172" height="76" rx="10" fill="none" stroke="url(#glow)" stroke-width="5"/>
    <line x1="0" y1="16" x2="0" y2="92" stroke="url(#glow)" stroke-width="5" opacity=".6"/>
    <circle cx="0" cy="-112" r="16" fill="#43E8A7">
      <animate attributeName="opacity" values="1;.3;1" dur="2s" repeatCount="indefinite"/>
    </circle>
    <circle cx="-48" cy="-96" r="8" fill="#43E8A7" opacity=".5"/>
    <circle cx="50" cy="-102" r="7" fill="#43E8A7" opacity=".4"/>
    <circle cx="-26" cy="-128" r="5" fill="#43E8A7" opacity=".3"/>
    <circle cx="34" cy="-134" r="4.5" fill="#43E8A7" opacity=".25"/>
  </g>
</svg>