<svg viewBox="0 0 512 512" xmlns="http://www.w3.org/2000/svg">
  <defs>
    <linearGradient id="a" x1="0" y1="0" x2="1" y2="1">
      <stop offset="0%" stop-color="#43E8A7"/>
      <stop offset="100%" stop-color="#2dcc8f"/>
    </linearGradient>
    <linearGradient id="b" x1="0" y1="0" x2="1" y2="1">
      <stop offset="0%" stop-color="#43E8A7" stop-opacity=".30"/>
      <stop offset="100%" stop-color="#43E8A7" stop-opacity=".08"/>
    </linearGradient>
    <filter id="g">
      <feGaussianBlur stdDeviation="5" result="b"/>
      <feMerge><feMergeNode in="b"/><feMergeNode in="SourceGraphic"/></feMerge>
    </filter>
  </defs>
  <rect width="512" height="512" rx="100" fill="#0a0a0a"/>
  <rect x="30" y="30" width="452" height="452" rx="86" fill="none" stroke="url(#b)" stroke-width="4"/>
  <circle cx="256" cy="256" r="192" fill="none" stroke="url(#b)" stroke-width="3"/>
  <g stroke="#43E8A7" stroke-opacity=".16" stroke-width="6" stroke-linecap="round">
    <line x1="60" y1="60" x2="124" y2="60"/><line x1="60" y1="60" x2="60" y2="124"/>
    <line x1="452" y1="60" x2="388" y2="60"/><line x1="452" y1="60" x2="452" y2="124"/>
    <line x1="60" y1="452" x2="124" y2="452"/><line x1="60" y1="452" x2="60" y2="388"/>
    <line x1="452" y1="452" x2="388" y2="452"/><line x1="452" y1="452" x2="452" y2="388"/>
  </g>
  <g filter="url(#g)">
    <path d="M140 396 L256 116 L372 396" fill="none" stroke="url(#a)" stroke-width="42" stroke-linecap="round" stroke-linejoin="round"/>
    <line x1="188" y1="310" x2="324" y2="310" stroke="url(#a)" stroke-width="32" stroke-linecap="round"/>
  </g>
</svg>