<svg viewBox="0 0 512 512" xmlns="http://www.w3.org/2000/svg">
  <defs>
    <linearGradient id="bg" x1="0" y1="0" x2="0" y2="1">
      <stop offset="0%" stop-color="#0C0E14"/>
      <stop offset="100%" stop-color="#151829"/>
    </linearGradient>
    <linearGradient id="g1" x1="0" y1="0" x2="1" y2="1">
      <stop offset="0%" stop-color="#43E8A7"/>
      <stop offset="100%" stop-color="#2BC48D"/>
    </linearGradient>
  </defs>
  <rect width="512" height="512" rx="100" fill="url(#bg)"/>
  <g transform="translate(256,266)">
    <path d="M-100,30 L-100,70 L0,110 L100,70 L100,30" fill="none" stroke="url(#g1)" stroke-width="8" stroke-linejoin="round"/>
    <rect x="-100" y="24" width="200" height="50" rx="8" fill="none" stroke="url(#g1)" stroke-width="8"/>
    <path d="M-20,-40 L-70,-10 L0,30" fill="none" stroke="url(#g1)" stroke-width="7" stroke-linecap="round" stroke-linejoin="round"/>
    <path d="M20,-40 L70,-10 L0,30" fill="none" stroke="url(#g1)" stroke-width="7" stroke-linecap="round" stroke-linejoin="round"/>
    <path d="M0,-40 L0,30" stroke="url(#g1)" stroke-width="5" opacity=".4"/>
    <path d="M-150,6 L0,-68 L150,6" fill="none" stroke="url(#g1)" stroke-width="8" stroke-linejoin="round"/>
    <rect x="-80" y="-26" width="160" height="16" rx="6" fill="url(#g1)" opacity=".15"/>
  </g>
  <g transform="translate(256,54)">
    <rect x="-42" y="-8" width="84" height="20" rx="6" fill="url(#g1)" opacity=".15"/>
    <rect x="-22" y="-8" width="44" height="20" rx="6" fill="url(#g1)" opacity=".3"/>
  </g>
</svg>