<svg viewBox="0 0 512 512" xmlns="http://www.w3.org/2000/svg">
  <defs>
    <linearGradient id="bg" x1="0" y1="0" x2="0" y2="1">
      <stop offset="0%" stop-color="#0C0E14"/>
      <stop offset="100%" stop-color="#151829"/>
    </linearGradient>
    <linearGradient id="g1" x1="0" y1="0" x2="1" y2="1">
      <stop offset="0%" stop-color="#43E8A7"/>
      <stop offset="100%" stop-color="#2BC48D"/>
    </linearGradient>
    <linearGradient id="g2" x1="0" y1="0" x2="0" y2="1">
      <stop offset="0%" stop-color="#3DDC9F"/>
      <stop offset="100%" stop-color="#1F9E6E"/>
    </linearGradient>
    <filter id="glow">
      <feGaussianBlur stdDeviation="3" result="blur"/>
      <feMerge><feMergeNode in="blur"/><feMergeNode in="SourceGraphic"/></feMerge>
    </filter>
  </defs>
  <rect width="512" height="512" rx="112" fill="url(#bg)"/>
  <rect x="36" y="36" width="440" height="440" rx="88" fill="none" stroke="rgba(67,232,167,.06)" stroke-width="2"/>
  <g transform="translate(256,268)">
    <path d="M-80,16 L-80,48 L0,88 L80,48 L80,16" fill="none" stroke="url(#g1)" stroke-width="6" stroke-linejoin="round"/>
    <rect x="-80" y="12" width="160" height="48" rx="8" fill="none" stroke="url(#g1)" stroke-width="6"/>
    <path d="M0,-60 L-66,-10 L0,36" fill="none" stroke="url(#g1)" stroke-width="6" stroke-linecap="round" stroke-linejoin="round"/>
    <path d="M0,-60 L66,-10 L0,36" fill="none" stroke="url(#g1)" stroke-width="6" stroke-linecap="round" stroke-linejoin="round"/>
    <path d="M0,-60 L0,36" stroke="url(#g2)" stroke-width="4" opacity=".5"/>
    <path d="M-160,-8 L0,-72 L160,-8" fill="none" stroke="url(#g1)" stroke-width="7" stroke-linejoin="round"/>
    <rect x="-100" y="-32" width="200" height="18" rx="5" fill="url(#g2)" opacity=".15"/>
    <line x1="-52" y1="-26" x2="52" y2="-26" stroke="url(#g1)" stroke-width="2" opacity=".3" stroke-linecap="round"/>
    <line x1="-66" y1="-19" x2="66" y2="-19" stroke="url(#g1)" stroke-width="2" opacity=".2" stroke-linecap="round"/>
  </g>
  <g transform="translate(256,56)" filter="url(#glow)">
    <path d="M0,0 L-54,-12 L-54,12 L0,24 Z" fill="url(#g1)" opacity=".9"/>
    <path d="M0,0 L54,-12 L54,12 L0,24 Z" fill="url(#g1)" opacity=".6"/>
    <circle cx="0" cy="-12" r="10" fill="url(#g1)"/>
  </g>
</svg>