<svg viewBox="0 0 192 192" xmlns="http://www.w3.org/2000/svg">
  <defs>
    <linearGradient id="bg" x1="0" y1="0" x2="0" y2="1">
      <stop offset="0%" stop-color="#0C0E14"/>
      <stop offset="100%" stop-color="#151829"/>
    </linearGradient>
    <linearGradient id="g1" x1="0" y1="0" x2="1" y2="1">
      <stop offset="0%" stop-color="#43E8A7"/>
      <stop offset="100%" stop-color="#2BC48D"/>
    </linearGradient>
    <linearGradient id="g2" x1="0" y1="0" x2="0" y2="1">
      <stop offset="0%" stop-color="#3DDC9F"/>
      <stop offset="100%" stop-color="#1F9E6E"/>
    </linearGradient>
  </defs>
  <rect width="192" height="192" rx="42" fill="url(#bg)"/>
  <rect x="12" y="12" width="168" height="168" rx="34" fill="none" stroke="rgba(67,232,167,.06)" stroke-width="1"/>
  <g transform="translate(96,100)">
    <path d="M-30,6 L-30,18 L0,33 L30,18 L30,6" fill="none" stroke="url(#g1)" stroke-width="2.5" stroke-linejoin="round"/>
    <rect x="-30" y="4" width="60" height="18" rx="3" fill="none" stroke="url(#g1)" stroke-width="2.5"/>
    <path d="M0,-22 L-25,-4 L0,13" fill="none" stroke="url(#g1)" stroke-width="2.5" stroke-linecap="round" stroke-linejoin="round"/>
    <path d="M0,-22 L25,-4 L0,13" fill="none" stroke="url(#g1)" stroke-width="2.5" stroke-linecap="round" stroke-linejoin="round"/>
    <path d="M0,-22 L0,13" stroke="url(#g2)" stroke-width="1.5" opacity=".5"/>
    <path d="M-60,-3 L0,-27 L60,-3" fill="none" stroke="url(#g1)" stroke-width="3" stroke-linejoin="round"/>
  </g>
  <g transform="translate(96,18)">
    <path d="M0,0 L-20,-5 L-20,5 L0,9 Z" fill="url(#g1)" opacity=".9"/>
    <path d="M0,0 L20,-5 L20,5 L0,9 Z" fill="url(#g1)" opacity=".6"/>
    <circle cx="0" cy="-5" r="4" fill="url(#g1)"/>
  </g>
</svg>