<svg viewBox="0 0 192 192" xmlns="http://www.w3.org/2000/svg">
  <defs>
    <radialGradient id="bg" cx=".3" cy=".3" r="1">
      <stop offset="0%" stop-color="#4becb0"/>
      <stop offset="100%" stop-color="#3ddb9c"/>
    </radialGradient>
    <linearGradient id="a" x1="0" y1="0" x2="1" y2="1">
      <stop offset="0%" stop-color="#ffffff"/>
      <stop offset="100%" stop-color="#d4f6e6"/>
    </linearGradient>
    <linearGradient id="r" x1="0" y1="0" x2="1" y2="1">
      <stop offset="0%" stop-color="#ffffff" stop-opacity=".3"/>
      <stop offset="100%" stop-color="#ffffff" stop-opacity=".06"/>
    </linearGradient>
  </defs>
  <rect width="192" height="192" rx="42" fill="url(#bg)"/>
  <rect x="10" y="10" width="172" height="172" rx="36" fill="none" stroke="url(#r)" stroke-width="1.5"/>
  <circle cx="96" cy="96" r="72" fill="none" stroke="url(#r)" stroke-width="1.2"/>
  <g stroke="#ffffff" stroke-opacity=".15" stroke-width="2.5" stroke-linecap="round">
    <line x1="22" y1="22" x2="46" y2="22"/><line x1="22" y1="22" x2="22" y2="46"/>
    <line x1="170" y1="22" x2="146" y2="22"/><line x1="170" y1="22" x2="170" y2="46"/>
    <line x1="22" y1="170" x2="46" y2="170"/><line x1="22" y1="170" x2="22" y2="146"/>
    <line x1="170" y1="170" x2="146" y2="170"/><line x1="170" y1="170" x2="170" y2="146"/>
  </g>
  <path d="M56 155 L96 40 L136 155" fill="none" stroke="url(#a)" stroke-width="11" stroke-linecap="round" stroke-linejoin="round"/>
  <line x1="70" y1="120" x2="122" y2="120" stroke="url(#a)" stroke-width="9" stroke-linecap="round"/>
</svg>