<svg viewBox="0 0 192 192" xmlns="http://www.w3.org/2000/svg">
  <defs>
    <linearGradient id="lL" x1="96" y1="42" x2="28" y2="158" gradientUnits="userSpaceOnUse">
      <stop offset="0" stop-color="#0a4a5c"/>
      <stop offset="0.45" stop-color="#00485e"/>
      <stop offset="1" stop-color="#013244"/>
    </linearGradient>
    <linearGradient id="lR" x1="96" y1="42" x2="140" y2="158" gradientUnits="userSpaceOnUse">
      <stop offset="0" stop-color="#0a4a5c"/>
      <stop offset="0.30" stop-color="#00b8cf"/>
      <stop offset="0.55" stop-color="#00d6e8"/>
      <stop offset="0.8" stop-color="#005f74"/>
      <stop offset="1" stop-color="#013244"/>
    </linearGradient>
    <linearGradient id="rib" x1="30" y1="134" x2="148" y2="114" gradientUnits="userSpaceOnUse">
      <stop offset="0" stop-color="#012f3d"/>
      <stop offset="0.18" stop-color="#0a5f70"/>
      <stop offset="0.42" stop-color="#00c7dc"/>
      <stop offset="0.62" stop-color="#26e4f2"/>
      <stop offset="0.82" stop-color="#008ba0"/>
      <stop offset="1" stop-color="#013244"/>
    </linearGradient>
    <radialGradient id="d1" cx="0.35" cy="0.35" r="0.75">
      <stop offset="0" stop-color="#7CF3FF"/>
      <stop offset="0.5" stop-color="#00CFE3"/>
      <stop offset="1" stop-color="#0090A3"/>
    </radialGradient>
    <radialGradient id="d2" cx="0.35" cy="0.35" r="0.75">
      <stop offset="0" stop-color="#0d6577"/>
      <stop offset="1" stop-color="#013a4a"/>
    </radialGradient>
  </defs>
  <rect width="192" height="192" rx="42" fill="#FFFFFF"/>
  <g transform="translate(96,96) scale(0.225) translate(-392,-584)">
    <path d="M 349,330 L 391.5,330 L 392,448 L 219.5,838 L 122,838 Z" fill="url(#lL)"/>
    <path d="M 434,330 L 391.5,330 L 392,448 L 564.5,838 L 662,838 Z" fill="url(#lR)"/>
    <path d="M 393,332 L 460,405" stroke="#013042" stroke-width="2" stroke-linecap="round" opacity="0.35"/>
    <path d="M 134,795 C 168,752 220,718 258,694 C 296,670 336,652 392,648 C 448,644 498,660 566,706 C 528,704 486,696 448,698 C 396,701 330,722 270,742 C 226,756 180,764 158,776 C 148,782 140,788 134,795 Z" fill="url(#rib)"/>
    <path d="M 148,784 C 195,738 255,700 300,678 C 344,656 372,650 396,649" fill="none" stroke="#8FF6FF" stroke-width="2.5" stroke-linecap="round" opacity="0.4"/>
    <g>
      <line x1="216" y1="497" x2="276" y2="522" stroke="#00485e" stroke-width="7" stroke-linecap="round"/>
      <circle cx="195" cy="487" r="27" fill="#f4f5f7" stroke="#013244" stroke-width="11"/>
      <circle cx="294" cy="528" r="21" fill="url(#d1)"/>
    </g>
    <g>
      <line x1="320" y1="745" x2="378" y2="775" stroke="#013a4a" stroke-width="7" stroke-linecap="round"/>
      <circle cx="308" cy="738" r="15" fill="url(#d2)"/>
      <circle cx="400" cy="791" r="27" fill="#f4f5f7" stroke="#013a4a" stroke-width="11"/>
    </g>
  </g>
</svg>